<?xml version="1.0" standalone="no"?>
<!DOCTYPE svg PUBLIC "-//W3C//DTD SVG 20010904//EN"
 "http://www.w3.org/TR/2001/REC-SVG-20010904/DTD/svg10.dtd">
<svg version="1.0" xmlns="http://www.w3.org/2000/svg"
 width="700.000000pt" height="700.000000pt" viewBox="0 0 700.000000 700.000000"
 preserveAspectRatio="xMidYMid meet">
<metadata>
Created by potrace 1.11, written by Peter Selinger 2001-2013
</metadata>
<g transform="translate(0.000000,700.000000) scale(0.100000,-0.100000)"
fill="#000000" stroke="none">
<path d="M1637 6553 c-394 -49 -702 -359 -755 -758 -9 -73 -8 -4566 2 -4615
30 -154 100 -310 186 -417 132 -164 343 -285 548 -314 54 -8 623 -11 1872 -11
1589 0 1917 3 1940 17 4 2 17 6 31 9 94 18 239 90 334 166 171 136 275 315
321 550 4 19 8 1052 8 2295 2 2345 2 2330 -39 2471 -93 319 -400 574 -735 610
-118 13 -3611 10 -3713 -3z m3703 -437 c113 -22 251 -129 300 -231 51 -109 49
0 46 -2409 -1 -1812 -4 -2258 -15 -2286 -29 -78 -59 -127 -111 -181 -63 -64
-137 -106 -220 -122 -63 -13 -3615 -16 -3680 -3 -110 22 -251 129 -298 226
-52 110 -50 -18 -48 2415 l2 2260 24 55 c51 118 121 193 224 241 34 16 82 32
107 35 24 3 45 7 46 8 6 5 3595 -2 3623 -8z"/>
<path d="M2645 5455 c-106 -31 -183 -105 -221 -210 -11 -32 -14 -47 -15 -95
-6 -188 146 -341 331 -335 102 4 170 35 234 106 138 154 109 380 -64 495 -72
48 -182 64 -265 39z"/>
<path d="M3688 4500 c-245 -244 -425 -417 -432 -413 -6 4 -138 92 -294 195
l-282 188 -33 -16 c-68 -35 -291 -202 -549 -412 l-128 -103 0 -128 c0 -181 24
-236 122 -285 l52 -26 1344 0 c965 0 1356 3 1388 11 58 15 125 79 142 135 9
30 12 154 12 440 l0 399 -110 57 c-110 57 -450 232 -634 327 -166 85 -108 120
-598 -369z"/>
<path d="M2156 3058 c-97 -14 -173 -92 -183 -190 -10 -96 34 -175 121 -221
l41 -21 1350 0 c743 0 1366 3 1386 7 47 9 117 70 140 121 48 106 0 235 -107
286 l-46 23 -1327 1 c-730 0 -1349 -2 -1375 -6z"/>
<path d="M2119 2176 c-89 -32 -149 -116 -149 -210 0 -79 51 -160 122 -194 42
-21 54 -21 758 -19 786 2 739 -2 804 63 84 85 84 223 -2 307 -70 69 -47 67
-810 66 -531 0 -695 -3 -723 -13z"/>
</g>
</svg>
